<?xml version="1.0" encoding="UTF-8"?>
<!-- Created with EazyDraw for Mac ( http://www.eazydraw.com/ ) -->

<svg
    version="1.1"
    xmlns:dc="http://purl.org/dc/elements/1.1/"
    xmlns:cc="http://creativecommons.org/ns#"
    xmlns:rdf="http://www.w3.org/1999/02/22-rdf-syntax-ns#"
    xmlns:svg="http://www.w3.org/2000/svg"
    xmlns:xlink="http://www.w3.org/1999/xlink"
    xmlns="http://www.w3.org/2000/svg"
    width="50.5759037972"
    height="32.9038567921"
    viewBox="0, 0, 52, 33"
    preserveAspectRatio="none"
    id="svg2">
   <defs
       id="defs_7FCC8C3D"/>
   <metadata
       id="metadata7">
      <rdf:RDF>
         <cc:Work
             rdf:about="">
            <dc:format>image/svg+xml</dc:format>
            <dc:type rdf:resource="http://purl.org/dc/dcmitype/StillImage"/>
            <dc:title></dc:title>
         </cc:Work>
      </rdf:RDF>
   </metadata>
   <g
       id="layer_Paper"
       style="fill:#22264B;fill-opacity:1;stroke:#2226B;stroke-opacity:1;fill-rule:nonzero;stroke-linecap:square;stroke-linejoin:miter;stroke-width:1;stroke-miterlimit:10">
      <g
          id="9E14BB3D">
         <path
             style="stroke:none"
             id="6E14BB3D"
             d="M42.5413769078,11.3042789757 C39.6653807918,14.5167936467 39.7455238428,18.0992993237 33.5316546668,22.8939686427 C32.0189545838,24.0610518197 38.6816919888,25.6706840797 32.5710288738,32.1511099787 C32.4107650548,32.9424601767 26.9109481988,33.0114722477 25.5813527248,32.2528960107
C23.6239700208,31.1359022417 31.9335231508,25.6375823907 25.5963795468,23.9681081427 C21.5858877168,24.3771716307 20.2863458878,24.3103857547 16.2558182948,24.1423079677 C11.4750404508,27.9296947357 17.7690749268,30.9578065727 16.4656372548,32.1399165717
C15.4031852838,33.1033028267 10.2334019628,33.2079340317 8.616627223797,32.1521606487 C6.593571742797,30.8309134097 10.0825771938,23.3169458557 8.899910646797,23.1956181817 C7.539148430797,23.0564809407 -0.757883514203,23.3815055347 0.056057831797,17.6088416447
C2.261951160797,16.6472630787 4.917246264797,18.7821849017 6.445736299797,15.9397024207 C8.377867718797,10.1851730647 13.0111378388,3.314576112655 20.4060039148,3.314576112655 C27.8008699908,3.314576112655 33.0307605998,9.050926277655 34.2362040338,10.0060582707
C37.4480897218,12.8710783627 34.2295670668,4.791100512655 39.9794638818,0.503421602655 C43.2133804328,-0.383135200345 47.6391090598,-0.592163159345 49.6665656628,4.137712029655 C50.7546188868,5.918112162655 51.0941137538,9.057604865655 49.3932897218,11.0111020517
C47.7375669558,13.3474842747 44.0487485368,13.7153362557 42.5413769078,11.3042789757 z"/>
         <circle
             style="fill:none;stroke:#FFFFFF"
             id="7E14BB3D"
             cx="45.160499746"
             cy="5.023770736886"
             r="1.407726961231"/>
         <path
             style="fill:none;stroke:#FFFFFF"
             id="8E14BB3D"
             d="M6.839115131414,18.2207065295 C16.5521093757,21.0282797858 27.0960978108,18.7507655182 34.7420584267,12.1936369957"/>
      </g>
   </g>
</svg>
